<?xml version="1.0" encoding="utf-8"?>
<!-- Generator: Adobe Illustrator 16.0.0, SVG Export Plug-In . SVG Version: 6.00 Build 0)  -->
<!DOCTYPE svg PUBLIC "-//W3C//DTD SVG 1.1//EN" "http://www.w3.org/Graphics/SVG/1.1/DTD/svg11.dtd">
<svg version="1.1" xmlns="http://www.w3.org/2000/svg" xmlns:xlink="http://www.w3.org/1999/xlink" x="0px" y="0px" width="612px"
	 height="612px" viewBox="0 0 612 612" enable-background="new 0 0 612 612" xml:space="preserve">
<g id="Layer_1">
	<path fill="#0A0E17" stroke="#000000" d="M279.515,96.943l-119.096,69.429l57.126,99.908l119.098-69.429L279.515,96.943z"/>
	<path display="none" d="M0,0h612v612H0V0z"/>
	<g transform="matrix(18.68858,0,0,18.68858,3884.00698,-15526.17362)">
		<path display="none" fill="#0A0E17" stroke="#FFFFFF" d="M-196.026,838.157c-1.064-4.428-7.92,0.436-4.908,3.691
			c2.93,3.166-0.839,5.63-2.497,4.123"/>
		<path fill="#0A0E17" stroke="#000000" stroke-width="0.7946" d="M-198.033,852.64c2.513,4.396,8.084,5.899,12.442,3.359
			c4.358-2.541,5.854-8.164,3.341-12.559c-2.513-4.396-8.084-5.899-12.442-3.359C-199.051,842.622-200.546,848.245-198.033,852.64z"
			/>
	</g>
	<line fill="#E1D3E8" stroke="#FFEFC0" stroke-width="2" x1="212.006" y1="136.3" x2="212.786" y2="135.846"/>
	<line fill="#231F20" stroke="#FFEFC0" stroke-width="9" x1="212.006" y1="136.3" x2="189.146" y2="122.868"/>
	<line fill="#231F20" stroke="#FFEFC0" stroke-width="9" x1="170.138" y1="122.868" x2="150.399" y2="122.868"/>
	<line fill="#231F20" stroke="#FFEFC0" stroke-width="9" x1="150.399" y1="122.868" x2="122.618" y2="109.583"/>
	<line fill="#231F20" stroke="#FFEFC0" stroke-width="9" x1="170.138" y1="122.868" x2="189.146" y2="122.868"/>
</g>
<g id="Layer_2">
	<path fill="none" stroke="#F15732" stroke-width="9" d="M113.845,114.749c3.283-0.037,6.594,0.431,9.504-0.738"/>
	<path fill="none" stroke="#F15732" stroke-width="9" d="M135.778,105.153c-0.487,0-0.975,0-1.462,0"/>
	<path fill="none" stroke="#F15732" stroke-width="9" d="M128.467,121.392c-0.244,0-0.487,0-0.731,0"/>
	<path fill="none" stroke="#F15732" stroke-width="9" d="M146.012,112.535c0.857-2.138,1.109-4.882,0.731-7.381"/>
	<path fill="none" stroke="#F15732" stroke-width="9" d="M122.618,98.511c-2.517,1.193-5.753-0.107-8.773-0.738"/>
	<path fill="none" stroke="#F15732" stroke-width="9" d="M130.66,111.796c0.804,1.511,1.045,3.346,0.731,5.167"/>
	<path fill="none" stroke="#F15732" stroke-width="9" d="M142.358,121.392c0,0.738,0,1.477,0,2.215"/>
	<path fill="none" stroke="#F15732" stroke-width="9" d="M129.198,122.868c-0.426,0.834-1.25,1.035-2.193,0.738"/>
</g>
</svg>
