<?xml version="1.0" encoding="utf-8"?>
<!-- Generator: Adobe Illustrator 16.0.0, SVG Export Plug-In . SVG Version: 6.00 Build 0)  -->
<!DOCTYPE svg PUBLIC "-//W3C//DTD SVG 1.1//EN" "http://www.w3.org/Graphics/SVG/1.1/DTD/svg11.dtd">
<svg version="1.1" id="Layer_1" xmlns="http://www.w3.org/2000/svg" xmlns:xlink="http://www.w3.org/1999/xlink" x="0px" y="0px"
	 width="612px" height="612px" viewBox="0 0 612 612" enable-background="new 0 0 612 612" xml:space="preserve">
<path display="none" d="M0,0h612v612H0V0z"/>
<g transform="matrix(18.68858,0,0,18.68858,-9080.99806,-28581.85549)">
	<path fill="#FFD394" stroke="#000000" d="M491.965,1540.586c0-13.965,21.338-14.512,21.338,0v20.877h-21.338V1540.586z"/>
	<path fill="#FFD394" stroke="#000000" d="M502.655,1529.544v31.675"/>
	<path fill="#FFD394" stroke="#000000" d="M508.131,1529.544v31.675"/>
	<path fill="#FFD394" stroke="#000000" d="M497.269,1529.544v31.675"/>
	<path fill="#FFD394" stroke="#000000" d="M490.737,1553.198h23.948v3.242h-23.948V1553.198z"/>
	<path fill="#FFD394" stroke="#000000" d="M490.737,1540.423h23.948v3.242h-23.948V1540.423z"/>
	<path fill="#FFD394" stroke="#000000" stroke-width="0.8322" d="M498.201,1548.406c0,1.078-0.874,1.952-1.953,1.952
		s-1.953-0.874-1.953-1.952s0.874-1.953,1.953-1.953S498.201,1547.328,498.201,1548.406z"/>
	<path fill="#FFD394" stroke="#000000" d="M513.338,1550.74h2.53v8.053h-2.53V1550.74z"/>
	<path fill="#FFD394" stroke="#000000" d="M513.36,1553.209h3.735"/>
	<path fill="#FFD394" stroke="#000000" d="M513.36,1556.45h3.735"/>
	<path fill="#FFD394" stroke="#000000" d="M513.338,1537.965h2.53v8.053h-2.53V1537.965z"/>
	<path fill="#FFD394" stroke="#000000" d="M513.36,1540.407h3.735"/>
	<path fill="#FFD394" stroke="#000000" d="M513.36,1543.675h3.735"/>
</g>
</svg>
