<?xml version="1.0" encoding="utf-8"?>
<!-- Generator: Adobe Illustrator 16.0.0, SVG Export Plug-In . SVG Version: 6.00 Build 0)  -->
<!DOCTYPE svg PUBLIC "-//W3C//DTD SVG 1.1//EN" "http://www.w3.org/Graphics/SVG/1.1/DTD/svg11.dtd">
<svg version="1.1" id="Layer_3" xmlns="http://www.w3.org/2000/svg" xmlns:xlink="http://www.w3.org/1999/xlink" x="0px" y="0px"
	 width="612px" height="612px" viewBox="0 0 612 612" enable-background="new 0 0 612 612" xml:space="preserve">
<rect fill="#DAA28B" stroke="#000000" stroke-width="3" stroke-miterlimit="10" width="612" height="612"/>
<line fill="none" stroke="#000000" stroke-width="3" stroke-miterlimit="10" x1="612" y1="152.013" x2="0" y2="152.013"/>
<line fill="none" stroke="#000000" stroke-width="3" stroke-miterlimit="10" x1="612" y1="303.549" x2="0" y2="303.549"/>
<line fill="none" stroke="#000000" stroke-width="3" stroke-miterlimit="10" x1="612" y1="468.712" x2="0" y2="468.712"/>
<line fill="none" stroke="#000000" stroke-width="3" stroke-miterlimit="10" x1="303.767" y1="0" x2="303.767" y2="152.013"/>
<line fill="#DAA28B" stroke="#000000" stroke-width="3" stroke-miterlimit="10" x1="445.851" y1="154" x2="445.851" y2="303.549"/>
<line fill="#DAA28B" stroke="#000000" stroke-width="3" stroke-miterlimit="10" x1="154.782" y1="152.013" x2="154.782" y2="303.549"/>
<line fill="#DAA28B" stroke="#000000" stroke-width="3" stroke-miterlimit="10" x1="303.767" y1="303.549" x2="303.767" y2="468.712"/>
<line fill="#DAA28B" stroke="#000000" stroke-width="3" stroke-miterlimit="10" x1="445.851" y1="468.712" x2="445.851" y2="612"/>
<line fill="#DAA28B" stroke="#000000" stroke-width="3" stroke-miterlimit="10" x1="154.782" y1="468.712" x2="154.782" y2="611.37"/>
<line fill="#DAA28B" stroke="#FFFFFF" stroke-width="3" stroke-miterlimit="10" x1="9.772" y1="139" x2="9.772" y2="12"/>
<line fill="#DAA28B" stroke="#FFFFFF" stroke-width="3" stroke-miterlimit="10" x1="9.772" y1="12" x2="293.001" y2="12"/>
<line fill="#DAA28B" stroke="#FFFFFF" stroke-width="3" stroke-miterlimit="10" x1="317" y1="139" x2="317" y2="12"/>
<line fill="#DAA28B" stroke="#FFFFFF" stroke-width="3" stroke-miterlimit="10" x1="317" y1="12" x2="597.791" y2="12"/>
<line fill="#DAA28B" stroke="#FFFFFF" stroke-width="3" stroke-miterlimit="10" x1="13.5" y1="171.676" x2="139" y2="171.5"/>
<line fill="#DAA28B" stroke="#FFFFFF" stroke-width="3" stroke-miterlimit="10" x1="172.154" y1="289.5" x2="172.154" y2="171.813"/>
<line fill="#DAA28B" stroke="#FFFFFF" stroke-width="3" stroke-miterlimit="10" x1="172.154" y1="171.813" x2="428.5" y2="171.5"/>
<line fill="#DAA28B" stroke="#FFFFFF" stroke-width="3" stroke-miterlimit="10" x1="460.745" y1="289.5" x2="460.745" y2="171.5"/>
<line fill="#DAA28B" stroke="#FFFFFF" stroke-width="3" stroke-miterlimit="10" x1="460.745" y1="171.5" x2="596.457" y2="171.5"/>
<line fill="#DAA28B" stroke="#FFFFFF" stroke-width="3" stroke-miterlimit="10" x1="19.009" y1="449.726" x2="19.009" y2="326.085"/>
<line fill="#DAA28B" stroke="#FFFFFF" stroke-width="3" stroke-miterlimit="10" x1="19.009" y1="326.085" x2="285.5" y2="326.085"/>
<line fill="#DAA28B" stroke="#FFFFFF" stroke-width="3" stroke-miterlimit="10" x1="323.815" y1="449.726" x2="323.815" y2="325.611"/>
<line fill="#DAA28B" stroke="#FFFFFF" stroke-width="3" stroke-miterlimit="10" x1="323.815" y1="325.611" x2="592.5" y2="325.611"/>
<line fill="#DAA28B" stroke="#FFFFFF" stroke-width="3" stroke-miterlimit="10" x1="19.009" y1="490" x2="137.5" y2="490"/>
<line fill="#DAA28B" stroke="#FFFFFF" stroke-width="3" stroke-miterlimit="10" x1="171.828" y1="602.029" x2="171.828" y2="489.5"/>
<line fill="#DAA28B" stroke="#FFFFFF" stroke-width="3" stroke-miterlimit="10" x1="171.828" y1="489.5" x2="426" y2="489.5"/>
<line fill="#DAA28B" stroke="#FFFFFF" stroke-width="3" stroke-miterlimit="10" x1="460.745" y1="599.5" x2="460.745" y2="492.5"/>
<line fill="#DAA28B" stroke="#FFFFFF" stroke-width="3" stroke-miterlimit="10" x1="460.745" y1="489.5" x2="596.457" y2="489.5"/>
</svg>
